<?xml version="1.0"?>
<svg xmlns="http://www.w3.org/2000/svg" xmlns:xlink="http://www.w3.org/1999/xlink" width="1024px" height="233px" viewBox="0 0 1021 233" version="1.1">
<g id="surface1">
<path style=" stroke:none;fill-rule:nonzero;fill:rgb(37.254903%,38.82353%,40.784314%);fill-opacity:1;" d="M 340.53125 186.003906 C 321.488281 186.246094 303.167969 178.707031 289.804688 165.128906 C 276.003906 152.125 268.28125 133.925781 268.523438 114.953125 C 268.296875 95.988281 276.023438 77.796875 289.828125 64.804688 C 303.1875 51.230469 321.496094 43.695312 340.53125 43.929688 C 358.707031 43.675781 376.230469 50.730469 389.171875 63.511719 L 375.488281 77.203125 C 366.125 68.140625 353.554688 63.152344 340.53125 63.335938 C 326.917969 63.09375 313.824219 68.5625 304.429688 78.421875 C 294.683594 88.0625 289.300781 101.269531 289.53125 114.980469 C 289.300781 128.6875 294.683594 141.898438 304.429688 151.535156 C 313.832031 161.386719 326.921875 166.847656 340.53125 166.597656 C 353.921875 167.007812 366.886719 161.863281 376.359375 152.382812 C 382.019531 146.714844 385.535156 138.570312 386.910156 127.953125 L 340.53125 127.953125 L 340.53125 108.542969 L 405.804688 108.542969 C 406.546875 112.542969 406.894531 116.601562 406.847656 120.671875 C 406.847656 139.722656 401.253906 154.859375 390.0625 166.074219 C 377.351562 179.363281 360.839844 186.003906 340.53125 186.003906 Z M 492.160156 172.933594 C 473.941406 190.304688 445.304688 190.304688 427.085938 172.933594 C 418.269531 164.394531 413.433594 152.550781 413.75 140.277344 C 413.433594 128.003906 418.269531 116.160156 427.085938 107.625 C 445.28125 90.1875 473.964844 90.1875 492.160156 107.625 C 500.972656 116.164062 505.808594 128.007812 505.496094 140.277344 C 505.816406 152.546875 500.988281 164.390625 492.1875 172.933594 Z M 441.460938 160.109375 C 446.15625 165.160156 452.742188 168.03125 459.636719 168.03125 C 466.53125 168.03125 473.113281 165.160156 477.808594 160.109375 C 482.933594 154.785156 485.679688 147.613281 485.433594 140.230469 C 485.710938 132.871094 483.027344 125.707031 477.984375 120.347656 C 473.210938 115.367188 466.617188 112.550781 459.722656 112.550781 C 452.828125 112.550781 446.230469 115.367188 441.460938 120.347656 C 436.417969 125.707031 433.734375 132.871094 434.011719 140.230469 C 433.71875 147.589844 436.402344 154.757812 441.460938 160.109375 Z M 592.25 172.933594 C 574.027344 190.304688 545.390625 190.304688 527.171875 172.933594 C 518.355469 164.394531 513.519531 152.550781 513.835938 140.277344 C 513.519531 128.003906 518.355469 116.160156 527.171875 107.625 C 545.367188 90.1875 574.054688 90.1875 592.25 107.625 C 601.058594 116.164062 605.894531 128.007812 605.582031 140.277344 C 605.898438 152.550781 601.0625 164.394531 592.25 172.933594 Z M 541.523438 160.109375 C 546.21875 165.160156 552.804688 168.03125 559.695312 168.03125 C 566.589844 168.03125 573.175781 165.160156 577.871094 160.109375 C 582.992188 154.785156 585.742188 147.613281 585.496094 140.230469 C 585.773438 132.871094 583.089844 125.707031 578.046875 120.347656 C 573.273438 115.367188 566.679688 112.550781 559.785156 112.550781 C 552.890625 112.550781 546.292969 115.367188 541.523438 120.347656 C 536.480469 125.707031 533.796875 132.871094 534.074219 140.230469 C 533.777344 147.589844 536.464844 154.757812 541.523438 160.109375 Z M 658.019531 227.085938 C 648.800781 227.386719 639.753906 224.507812 632.398438 218.933594 C 625.886719 214.03125 620.753906 207.523438 617.5 200.046875 L 634.878906 192.765625 C 636.777344 197.230469 639.746094 201.15625 643.519531 204.195312 C 647.5625 207.523438 652.664062 209.285156 657.898438 209.167969 C 664.589844 209.539062 671.117188 207.011719 675.824219 202.234375 C 680.144531 197.613281 682.304688 190.984375 682.304688 182.351562 L 682.304688 175.644531 L 681.609375 175.644531 C 675.949219 182.566406 667.929688 186.03125 657.550781 186.03125 C 645.925781 186.046875 634.820312 181.210938 626.910156 172.683594 C 618.285156 164.175781 613.527344 152.496094 613.75 140.378906 C 613.539062 128.210938 618.292969 116.480469 626.910156 107.894531 C 634.800781 99.332031 645.910156 94.46875 657.550781 94.476562 C 662.410156 94.410156 667.226562 95.421875 671.652344 97.433594 C 675.453125 99.105469 678.84375 101.589844 681.582031 104.714844 L 682.277344 104.714844 L 682.277344 97.261719 L 701.324219 97.261719 L 701.324219 179.269531 C 701.324219 195.210938 697.25 207.136719 689.105469 215.058594 C 680.777344 223.078125 669.574219 227.40625 658.019531 227.0625 Z M 659.410156 168.011719 C 666.089844 168.117188 672.464844 165.230469 676.792969 160.136719 C 681.527344 154.707031 684.027344 147.679688 683.792969 140.476562 C 684.027344 133.207031 681.53125 126.113281 676.792969 120.597656 C 672.484375 115.464844 666.105469 112.535156 659.410156 112.617188 C 652.539062 112.546875 645.976562 115.457031 641.410156 120.597656 C 636.421875 125.992188 633.746094 133.128906 633.960938 140.476562 C 633.746094 147.757812 636.425781 154.828125 641.410156 160.136719 C 646.007812 165.21875 652.5625 168.078125 659.410156 167.988281 Z M 735.3125 48.898438 L 735.3125 183.347656 L 715.226562 183.347656 L 715.226562 48.898438 Z M 790.359375 186.128906 C 778.238281 186.417969 766.546875 181.648438 758.082031 172.957031 C 749.484375 164.332031 744.789062 152.558594 745.097656 140.378906 C 744.617188 128.117188 749.152344 116.1875 757.660156 107.351562 C 765.597656 98.984375 776.675781 94.332031 788.199219 94.527344 C 793.492188 94.476562 798.738281 95.507812 803.621094 97.558594 C 808.015625 99.359375 812.015625 102.011719 815.386719 105.363281 C 818.207031 108.164062 820.707031 111.273438 822.835938 114.632812 C 824.609375 117.492188 826.113281 120.511719 827.332031 123.652344 L 829.417969 128.847656 L 768.289062 154.121094 C 772.15625 162.828125 780.917969 168.316406 790.433594 167.988281 C 799.671875 167.988281 807.167969 163.773438 812.929688 155.339844 L 828.523438 165.703125 C 824.613281 171.332031 819.605469 176.109375 813.800781 179.742188 C 806.804688 184.085938 798.6875 186.265625 790.460938 186.003906 Z M 765.109375 138.886719 L 805.953125 121.914062 C 804.6875 118.90625 802.425781 116.429688 799.546875 114.90625 C 796.328125 113.089844 792.6875 112.164062 788.996094 112.222656 C 782.738281 112.375 776.796875 114.992188 772.457031 119.503906 C 767.253906 124.550781 764.558594 131.652344 765.109375 138.886719 Z M 765.109375 138.886719 "></path>
<path style=" stroke:none;fill-rule:nonzero;fill:rgb(37.254903%,38.82353%,40.784314%);fill-opacity:1;" d="M 956.542969 149.929688 L 902.757812 149.929688 L 889.914062 186.039062 L 871.925781 186.039062 L 920.230469 56.75 L 939.585938 56.75 L 987.886719 186.039062 L 969.734375 186.039062 Z M 908.753906 133.792969 L 950.546875 133.792969 L 929.480469 75.808594 Z M 1002.425781 186.085938 C 1005.75 186.089844 1016.796875 186.089844 1018.988281 186.097656 C 1019.023438 142.980469 1018.988281 99.863281 1019 56.761719 C 1013.476562 56.75 1007.9375 56.738281 1002.414062 56.773438 C 1002.425781 99.875 1002.414062 142.980469 1002.425781 186.085938 Z M 1002.425781 186.085938 "></path>
<path style=" stroke:none;fill-rule:evenodd;fill:rgb(98.431373%,73.725492%,1.568628%);fill-opacity:1;" d="M 83.351562 14.242188 C 83.351562 6.378906 89.722656 0 97.582031 0 C 105.441406 0 111.8125 6.378906 111.8125 14.242188 C 111.8125 22.109375 105.441406 28.488281 97.582031 28.488281 C 89.722656 28.488281 83.351562 22.109375 83.351562 14.242188 Z M 83.351562 14.242188 "></path>
<path style=" stroke:none;fill-rule:evenodd;fill:rgb(98.431373%,73.725492%,1.568628%);fill-opacity:1;" d="M 83.351562 65.113281 C 83.351562 57.25 89.722656 50.871094 97.582031 50.871094 C 105.441406 50.871094 111.8125 57.25 111.8125 65.113281 C 111.8125 72.980469 105.441406 79.359375 97.582031 79.359375 C 89.722656 79.359375 83.351562 72.980469 83.351562 65.113281 Z M 83.351562 65.113281 "></path>
<path style=" stroke:none;fill-rule:evenodd;fill:rgb(98.431373%,73.725492%,1.568628%);fill-opacity:1;" d="M 83.351562 115.984375 C 83.351562 108.121094 89.722656 101.742188 97.582031 101.742188 C 105.441406 101.742188 111.8125 108.121094 111.8125 115.984375 C 111.8125 123.851562 105.441406 130.230469 97.582031 130.230469 C 89.722656 130.230469 83.351562 123.851562 83.351562 115.984375 Z M 83.351562 115.984375 "></path>
<path style=" stroke:none;fill-rule:evenodd;fill:rgb(98.431373%,73.725492%,1.568628%);fill-opacity:1;" d="M 83.351562 166.855469 C 83.351562 158.988281 89.722656 152.613281 97.582031 152.613281 C 105.441406 152.613281 111.8125 158.988281 111.8125 166.855469 C 111.8125 174.722656 105.441406 181.101562 97.582031 181.101562 C 89.722656 181.101562 83.351562 174.722656 83.351562 166.855469 Z M 83.351562 166.855469 "></path>
<path style=" stroke:none;fill-rule:evenodd;fill:rgb(98.431373%,73.725492%,1.568628%);fill-opacity:1;" d="M 83.351562 218.746094 C 83.351562 210.878906 89.722656 204.5 97.582031 204.5 C 105.441406 204.5 111.8125 210.878906 111.8125 218.746094 C 111.8125 226.613281 105.441406 232.988281 97.582031 232.988281 C 89.722656 232.988281 83.351562 226.613281 83.351562 218.746094 Z M 83.351562 218.746094 "></path>
<path style=" stroke:none;fill-rule:evenodd;fill:rgb(25.882354%,52.156866%,95.686275%);fill-opacity:1;" d="M 164.671875 65.113281 C 164.671875 54.4375 173.320312 45.785156 183.984375 45.785156 C 194.652344 45.785156 203.296875 54.4375 203.296875 65.113281 C 203.296875 75.789062 194.652344 84.445312 183.984375 84.445312 C 173.320312 84.445312 164.671875 75.792969 164.671875 65.113281 Z M 164.671875 65.113281 "></path>
<path style=" stroke:none;fill-rule:evenodd;fill:rgb(25.882354%,52.156866%,95.686275%);fill-opacity:1;" d="M 0 65.113281 C 0 59.496094 4.550781 54.941406 10.164062 54.941406 C 15.777344 54.941406 20.328125 59.496094 20.328125 65.113281 C 20.328125 70.734375 15.777344 75.289062 10.164062 75.289062 C 4.550781 75.289062 0 70.734375 0 65.113281 Z M 0 65.113281 "></path>
<path style=" stroke:none;fill-rule:evenodd;fill:rgb(25.882354%,52.156866%,95.686275%);fill-opacity:1;" d="M 0 115.984375 C 0 110.367188 4.550781 105.8125 10.164062 105.8125 C 15.777344 105.8125 20.328125 110.367188 20.328125 115.984375 C 20.328125 121.605469 15.777344 126.160156 10.164062 126.160156 C 4.550781 126.160156 0 121.605469 0 115.984375 Z M 0 115.984375 "></path>
<path style=" stroke:none;fill-rule:evenodd;fill:rgb(25.882354%,52.156866%,95.686275%);fill-opacity:1;" d="M 0 166.855469 C 0 161.238281 4.550781 156.683594 10.164062 156.683594 C 15.777344 156.683594 20.328125 161.238281 20.328125 166.855469 C 20.328125 172.476562 15.777344 177.03125 10.164062 177.03125 C 4.550781 177.03125 0 172.476562 0 166.855469 Z M 0 166.855469 "></path>
<path style=" stroke:none;fill-rule:evenodd;fill:rgb(25.882354%,52.156866%,95.686275%);fill-opacity:1;" d="M 164.671875 115.984375 C 164.671875 105.308594 173.320312 96.65625 183.984375 96.65625 C 194.652344 96.65625 203.296875 105.308594 203.296875 115.984375 C 203.296875 126.660156 194.652344 135.316406 183.984375 135.316406 C 173.320312 135.316406 164.671875 126.660156 164.671875 115.984375 Z M 164.671875 115.984375 "></path>
<path style=" stroke:none;fill-rule:evenodd;fill:rgb(25.882354%,52.156866%,95.686275%);fill-opacity:1;" d="M 164.671875 166.855469 C 164.671875 156.179688 173.320312 147.527344 183.984375 147.527344 C 194.652344 147.527344 203.296875 156.179688 203.296875 166.855469 C 203.296875 177.53125 194.652344 186.1875 183.984375 186.1875 C 173.320312 186.1875 164.671875 177.53125 164.671875 166.855469 Z M 164.671875 166.855469 "></path>
<path style=" stroke:none;fill-rule:evenodd;fill:rgb(91.764706%,26.274511%,20.784314%);fill-opacity:1;" d="M 41.675781 39.679688 C 41.675781 32.9375 47.136719 27.46875 53.875 27.46875 C 60.609375 27.46875 66.070312 32.9375 66.070312 39.679688 C 66.070312 46.421875 60.609375 51.886719 53.875 51.886719 C 47.136719 51.886719 41.675781 46.421875 41.675781 39.679688 Z M 41.675781 39.679688 "></path>
<path style=" stroke:none;fill-rule:evenodd;fill:rgb(91.764706%,26.274511%,20.784314%);fill-opacity:1;" d="M 41.675781 90.550781 C 41.675781 83.808594 47.136719 78.339844 53.875 78.339844 C 60.609375 78.339844 66.070312 83.808594 66.070312 90.550781 C 66.070312 97.292969 60.609375 102.757812 53.875 102.757812 C 47.136719 102.757812 41.675781 97.292969 41.675781 90.550781 Z M 41.675781 90.550781 "></path>
<path style=" stroke:none;fill-rule:evenodd;fill:rgb(91.764706%,26.274511%,20.784314%);fill-opacity:1;" d="M 41.675781 141.421875 C 41.675781 134.679688 47.136719 129.210938 53.875 129.210938 C 60.609375 129.210938 66.070312 134.679688 66.070312 141.421875 C 66.070312 148.164062 60.609375 153.628906 53.875 153.628906 C 47.136719 153.628906 41.675781 148.164062 41.675781 141.421875 Z M 41.675781 141.421875 "></path>
<path style=" stroke:none;fill-rule:evenodd;fill:rgb(91.764706%,26.274511%,20.784314%);fill-opacity:1;" d="M 41.675781 192.292969 C 41.675781 185.550781 47.136719 180.082031 53.875 180.082031 C 60.609375 180.082031 66.070312 185.550781 66.070312 192.292969 C 66.070312 199.035156 60.609375 204.5 53.875 204.5 C 47.136719 204.5 41.675781 199.035156 41.675781 192.292969 Z M 41.675781 192.292969 "></path>
<path style=" stroke:none;fill-rule:evenodd;fill:rgb(20.392157%,65.882355%,32.549021%);fill-opacity:1;" d="M 124.011719 40.1875 C 124.011719 30.917969 131.519531 23.402344 140.785156 23.402344 C 150.046875 23.402344 157.554688 30.917969 157.554688 40.1875 C 157.554688 49.460938 150.046875 56.976562 140.785156 56.976562 C 131.519531 56.976562 124.011719 49.460938 124.011719 40.1875 Z M 124.011719 40.1875 "></path>
<path style=" stroke:none;fill-rule:evenodd;fill:rgb(20.392157%,65.882355%,32.549021%);fill-opacity:1;" d="M 124.011719 91.058594 C 124.011719 81.789062 131.519531 74.273438 140.785156 74.273438 C 150.046875 74.273438 157.554688 81.789062 157.554688 91.058594 C 157.554688 100.332031 150.046875 107.847656 140.785156 107.847656 C 131.519531 107.847656 124.011719 100.332031 124.011719 91.058594 Z M 124.011719 91.058594 "></path>
<path style=" stroke:none;fill-rule:evenodd;fill:rgb(20.392157%,65.882355%,32.549021%);fill-opacity:1;" d="M 124.011719 141.929688 C 124.011719 132.660156 131.519531 125.140625 140.785156 125.140625 C 150.046875 125.140625 157.554688 132.660156 157.554688 141.929688 C 157.554688 151.203125 150.046875 158.71875 140.785156 158.71875 C 131.519531 158.71875 124.011719 151.203125 124.011719 141.929688 Z M 124.011719 141.929688 "></path>
<path style=" stroke:none;fill-rule:evenodd;fill:rgb(20.392157%,65.882355%,32.549021%);fill-opacity:1;" d="M 124.011719 192.800781 C 124.011719 183.53125 131.519531 176.011719 140.785156 176.011719 C 150.046875 176.011719 157.554688 183.53125 157.554688 192.800781 C 157.554688 202.074219 150.046875 209.589844 140.785156 209.589844 C 131.519531 209.589844 124.011719 202.074219 124.011719 192.800781 Z M 124.011719 192.800781 "></path>
</g>
</svg>