<?xml version="1.0"?>
<svg id="Layer_1" xmlns="http://www.w3.org/2000/svg" width="61.178mm" height="9.978mm" version="1.1" viewBox="0 0 173.418 28.285">
  
  <path d="M2.687,7.913v.084c0,.516.096.792.324.924.287.167.911.24,2.087.24.995,0,1.618-.036,2.482-.144.455-.06.684-.144.827-.312.156-.192.24-.432.24-.684,0-.468-.204-.695-.756-.815-.336-.072-.348-.072-2.53-.084h-1.151c-1.691-.012-2.351-.144-2.795-.552-.384-.335-.563-.839-.563-1.547,0-.888.216-1.619.6-1.955.54-.504,1.763-.696,4.401-.696,1.607,0,2.471.06,3.022.228.995.288,1.344.828,1.344,2.063v.156h-1.8c-.012-.468-.132-.708-.384-.828-.335-.156-1.103-.251-1.99-.251-1.512,0-2.566.096-2.927.275-.288.132-.432.408-.432.78,0,.348.108.576.336.708.275.156.731.204,1.991.204h1.354c2.399,0,3.131.132,3.635.671.335.348.491.875.491,1.667,0,.839-.18,1.415-.575,1.799-.528.504-1.56.671-4.258.671-2.879,0-3.778-.132-4.282-.611-.359-.348-.516-.828-.516-1.583,0-.072,0-.251.013-.408h1.811Z" fill="#ededed"></path>
  <path d="M22.266,2.444v5.037c0,1.523-.24,2.147-1.008,2.579-.684.396-1.367.468-4.197.468-2.771,0-3.61-.168-4.198-.828-.407-.468-.527-1.02-.527-2.495V2.444h1.847v4.186q0,1.067.061,1.403c.132.852.6,1.007,2.998,1.007,1.079,0,2.075-.048,2.351-.12.468-.12.72-.408.792-.912q.023-.144.035-1.259V2.444h1.848Z" fill="#ededed"></path>
  <path d="M24.348,2.444h6.249c1.031,0,1.463.036,1.835.156.995.3,1.343.972,1.343,2.579,0,1.223-.191,1.895-.684,2.315-.42.372-1.031.503-2.278.503h-4.63v2.447h-1.835V2.444ZM30.297,6.51c1.283,0,1.618-.252,1.618-1.235,0-1.08-.3-1.343-1.535-1.343h-4.197v2.579h4.114Z" fill="#ededed"></path>
  <path d="M35.495,2.444h8.503v1.403h-6.68v1.895h6.356v1.259h-6.356v2.039h6.752v1.403h-8.575V2.444Z" fill="#ededed"></path>
  <path d="M45.875,2.444h6.776c1.403,0,2.039.168,2.471.636.348.384.516,1.007.516,1.919,0,.875-.108,1.367-.348,1.667-.24.3-.528.444-1.008.528,1.008.084,1.235.396,1.224,1.667v1.583h-1.859v-1.199c-.023-1.091-.275-1.308-1.487-1.295h-4.449v2.495h-1.835V2.444ZM52.1,6.474c1.343,0,1.679-.24,1.679-1.199,0-1.104-.275-1.332-1.643-1.332h-4.426v2.531h4.39Z" fill="#ededed"></path>
  <path d="M57.611,2.444h1.847v8h-1.847V2.444Z" fill="#ededed"></path>
  <path d="M61.607,2.444h2.866l6.009,6.656-.036-6.656h1.764v8h-2.879l-5.973-6.62.036,6.62h-1.787V2.444Z" fill="#ededed"></path>
  <path d="M77.457,3.943h-3.766v-1.499h9.366v1.499h-3.754v6.5h-1.847V3.943Z" fill="#ededed"></path>
  <path d="M84.551,2.444h8.503v1.403h-6.68v1.895h6.356v1.259h-6.356v2.039h6.752v1.403h-8.575V2.444Z" fill="#ededed"></path>
  <path d="M94.931,2.444h1.847v6.5h5.841v1.499h-7.688V2.444Z" fill="#ededed"></path>
  <path d="M103.931,2.444h1.847v6.5h5.841v1.499h-7.688V2.444Z" fill="#ededed"></path>
  <path d="M112.931,2.444h1.847v8h-1.847V2.444Z" fill="#ededed"></path>
  <path d="M127.001,6.162v.852c0,1.463-.084,1.991-.371,2.519-.24.432-.636.696-1.26.852-.432.108-1.115.132-3.526.132-2.122,0-3.154-.072-3.646-.264-.768-.288-1.163-.755-1.331-1.607-.097-.456-.132-.983-.132-2.123,0-2.111.132-2.782.647-3.346.336-.36.804-.576,1.438-.66.744-.108,1.596-.144,3.946-.144s3.179.168,3.682.744c.349.384.516,1.008.516,1.895h-1.811c-.012-.503-.072-.695-.3-.875-.312-.252-.72-.3-2.279-.3-2.89,0-3.334.048-3.646.42-.252.288-.336.815-.336,2.062,0,1.56.096,2.099.432,2.387.348.312.804.372,2.975.372,2.375,0,2.627-.048,2.986-.564.156-.204.216-.587.216-1.139h-3.562v-1.211h5.36Z" fill="#ededed"></path>
  <path d="M128.939,2.444h8.503v1.403h-6.68v1.895h6.356v1.259h-6.356v2.039h6.752v1.403h-8.575V2.444Z" fill="#ededed"></path>
  <path d="M139.318,2.444h2.866l6.009,6.656-.036-6.656h1.764v8h-2.879l-5.973-6.62.036,6.62h-1.787V2.444Z" fill="#ededed"></path>
  <path d="M161.776,7.565v.132c0,1.14-.119,1.703-.455,2.063-.552.612-1.308.755-3.91.755-3.19,0-3.778-.06-4.485-.443-.456-.252-.756-.684-.912-1.295-.107-.408-.167-1.343-.167-2.471,0-2.231.228-2.986,1.067-3.454.684-.384,1.511-.48,4.041-.48,2.771,0,3.694.156,4.198.72.348.372.527,1.067.527,2.039h-1.763c0-1.164-.24-1.271-2.879-1.271-1.871,0-2.41.048-2.794.252-.456.24-.552.684-.552,2.411,0,2.327.191,2.507,2.687,2.507l2.446-.048c.863-.084,1.163-.408,1.163-1.235v-.18h1.787Z" fill="#ededed"></path>
  <path d="M163.702,2.444h8.503v1.403h-6.68v1.895h6.356v1.259h-6.356v2.039h6.752v1.403h-8.575V2.444Z" fill="#ededed"></path>
  <path d="M35.453,21.365v.647h-11.981v-.647h11.981Z" fill="#db7843"></path>
  <path d="M39.575,16.844h7.652v.804h-6.692v2.758h6.344v.756h-6.344v3.682h-.96v-7.999Z" fill="#db7843"></path>
  <path d="M61.206,17.491c.516.54.636,1.163.636,3.346,0,2.195-.12,2.818-.636,3.358-.611.636-1.224.731-4.51.731s-3.897-.096-4.51-.731c-.516-.54-.635-1.163-.635-3.346,0-2.195.119-2.831.635-3.358.612-.636,1.224-.731,4.558-.731,3.227,0,3.851.107,4.462.731ZM52.967,18.091c-.336.348-.42.924-.42,2.759,0,1.822.084,2.398.42,2.746.407.432.911.492,3.729.492s3.322-.072,3.73-.492c.336-.348.42-.924.42-2.746,0-1.835-.084-2.411-.42-2.759-.372-.408-1.044-.492-3.683-.492-2.758,0-3.394.084-3.777.492Z" fill="#db7843"></path>
  <path d="M76.206,16.844v5.433c0,.888-.024,1.128-.12,1.415-.372,1.008-1.199,1.235-4.594,1.235-2.771,0-3.682-.144-4.21-.647-.287-.275-.432-.6-.479-1.067-.024-.191-.024-.384-.024-.936v-5.433h.96v5.265c0,.744,0,.815.048,1.008.192.839.695.972,3.706.972,2.543,0,3.19-.097,3.514-.54.216-.3.24-.432.24-1.439v-5.265h.96Z" fill="#db7843"></path>
  <path d="M81.359,16.844h1.547l7.557,7.315v-7.315h.959v7.999h-1.547l-7.556-7.315v7.315h-.96v-7.999Z" fill="#db7843"></path>
  <path d="M96.671,16.844h6.225c1.763,0,2.65.323,3.131,1.163.359.588.527,1.535.527,2.83,0,1.308-.168,2.255-.527,2.843-.48.84-1.368,1.163-3.131,1.163h-6.225v-7.999ZM102.968,24.039c1.127,0,1.858-.264,2.183-.779.275-.456.408-1.199.408-2.375,0-1.235-.145-2.074-.433-2.519-.323-.491-1.007-.719-2.23-.719h-5.265v6.392h5.337Z" fill="#db7843"></path>
  <path d="M111.55,16.844h6.597c1.211,0,1.774.155,2.194.611.324.359.492.972.492,1.835,0,1.295-.3,1.751-1.283,1.979.815.156,1.127.576,1.127,1.5v2.074h-.959v-1.522c.023-1.38-.324-1.716-1.716-1.703h-5.492v3.226h-.96v-7.999ZM117.775,20.862c1.644,0,2.062-.324,2.062-1.619,0-1.271-.432-1.595-2.122-1.595h-5.205v3.214h5.265Z" fill="#db7843"></path>
  <path d="M133.471,16.844h1.319l-4.642,4.642v3.357h-.96v-3.357l-4.642-4.642h1.308l3.813,3.85,3.803-3.85Z" fill="#db7843"></path>
  <path d="M149.536,21.365v.647h-11.981v-.647h11.981Z" fill="#db7843"></path>
</svg>